<?xml version="1.0" standalone="no"?>
<!DOCTYPE svg PUBLIC "-//W3C//DTD SVG 20010904//EN"
 "http://www.w3.org/TR/2001/REC-SVG-20010904/DTD/svg10.dtd">
<svg version="1.0" xmlns="http://www.w3.org/2000/svg"
 width="1024.000000pt" height="1024.000000pt" viewBox="0 0 1024.000000 1024.000000"
 preserveAspectRatio="xMidYMid meet">

<style>
  circle {
    fill: white;
  }
  
  g {
    fill: #000000;
  }
  
  @media (prefers-color-scheme: dark) {
    circle {
      fill: #1a1a1a;
    }
    
    g {
      fill: #ffffff;
    }
  }
</style>

<!-- 添加圆形背景 -->
<circle cx="512" cy="512" r="512"/>

<g transform="translate(0.000000,1024.000000) scale(0.100000,-0.100000)"
stroke="none">
<path d="M4950 8574 c-14 -2 -65 -9 -115 -15 -272 -34 -563 -145 -806 -307
-416 -279 -736 -758 -834 -1247 -44 -222 -46 -275 -43 -1120 3 -784 4 -802 25
-876 27 -95 77 -195 136 -274 25 -33 190 -206 366 -383 268 -270 324 -322 336
-312 8 7 82 83 164 169 l149 157 -96 99 c-53 55 -202 208 -332 340 -186 189
-240 250 -254 285 -15 41 -17 113 -13 870 3 916 0 861 74 1080 113 334 342
642 608 818 353 233 791 295 1183 166 214 -70 373 -168 546 -335 l110 -107
288 -7 c247 -6 288 -5 288 7 0 17 -103 169 -188 276 -89 113 -301 315 -412
394 -217 153 -457 253 -735 305 -76 14 -392 26 -445 17z"/>
<path d="M5700 7410 c-162 -8 -277 -32 -398 -82 -103 -43 -234 -120 -328 -193
-42 -33 -330 -319 -640 -635 l-564 -575 0 -329 0 -328 38 32 c20 18 370 367
777 775 l740 744 92 45 c50 24 116 49 147 56 39 8 221 10 623 7 614 -4 604 -3
788 -63 191 -62 336 -154 495 -314 317 -318 497 -752 477 -1146 -12 -234 -88
-475 -203 -650 l-39 -59 8 -310 c4 -170 10 -311 12 -314 8 -8 151 114 251 213
366 366 525 980 402 1556 -86 408 -303 793 -609 1084 -260 248 -578 396 -981
457 -197 30 -757 45 -1088 29z"/>
<path d="M3022 7200 c-156 -55 -405 -221 -582 -387 -307 -288 -491 -614 -576
-1018 -25 -116 -28 -151 -28 -335 -1 -222 8 -295 55 -475 64 -246 156 -430
329 -655 108 -140 1032 -1062 1130 -1127 208 -138 435 -228 675 -269 126 -21
568 -30 768 -15 304 22 536 113 770 302 45 36 326 313 625 614 l542 549 0 330
0 330 -727 -725 c-432 -431 -754 -744 -793 -771 -110 -77 -223 -124 -354 -147
-97 -18 -686 -14 -791 4 -166 29 -324 98 -457 198 -99 74 -970 957 -1048 1063
-111 149 -195 337 -237 526 -26 123 -24 389 5 520 44 199 114 359 229 521 71
99 251 283 355 361 l76 57 7 77 c12 148 26 238 56 361 16 68 28 125 27 127 -2
1 -27 -6 -56 -16z"/>
<path d="M5392 6423 c-11 -10 -210 -274 -443 -588 -232 -313 -464 -626 -516
-694 -51 -69 -93 -134 -93 -146 0 -12 8 -29 18 -38 16 -15 54 -17 321 -17
l301 0 12 -24 c9 -21 -11 -101 -126 -517 -76 -270 -136 -503 -134 -518 3 -22
8 -26 37 -26 34 0 44 13 607 760 345 457 574 769 574 782 0 49 -22 53 -331 53
-270 0 -287 1 -303 19 -17 19 -14 38 73 450 50 237 91 447 91 466 0 52 -48 72
-88 38z"/>
<path d="M6183 6158 l-173 -173 433 -435 c464 -465 496 -503 568 -671 80 -185
96 -306 93 -704 -2 -254 -24 -405 -89 -601 -201 -612 -718 -1086 -1364 -1249
-246 -62 -582 -79 -816 -41 -432 69 -802 237 -1135 515 -47 40 -125 92 -175
117 -261 133 -277 146 -583 449 -227 224 -282 274 -277 250 22 -96 105 -319
164 -440 323 -659 962 -1147 1728 -1320 222 -50 313 -59 568 -60 321 0 522 31
805 125 396 130 707 325 997 623 271 279 449 582 557 947 72 245 90 420 83
847 -4 282 -8 342 -26 427 -31 151 -66 249 -136 391 -111 223 -154 274 -625
748 l-425 428 -172 -173z"/>
</g>
</svg>
